# xmcd CD database file
#
# Track frame offsets:
#	150
#	25788
#	57508
#	84768
#	98809
#	124495
#	143206
#	165647
#	187900
#	212939
#
# Disc length: 2954 seconds
#
# Revision: 0
# Processed by: cddbd v1.4PL0 Copyright (c) Steve Scherf et al.
# Submitted via: CDex 1.50beta9
#
DISCID=860b880a
DTITLE=Charbel Rouhana - Mazaj Alani
DYEAR=1900
DGENRE=Jazz
TTITLE0=Siwar
TTITLE1=Just Like That
TTITLE2=13th of July
TTITLE3=Passion
TTITLE4=Mazaj Alani (unveiled Mood)
TTITLE5=Flammenco
TTITLE6=Mood
TTITLE7=Memory
TTITLE8=Noun
TTITLE9=Noun (solo)
EXTD=
EXTT0=
EXTT1=
EXTT2=
EXTT3=
EXTT4=
EXTT5=
EXTT6=
EXTT7=
EXTT8=
EXTT9=
PLAYORDER=
